<svg width="19" height="18" viewBox="0 0 19 18" fill="none" xmlns="http://www.w3.org/2000/svg">
    <path fill-rule="evenodd" clip-rule="evenodd" d="M8.92505 5.31212H9.40521H10.6004H18.9806V2.97407C18.9806 1.42772 17.7912 0.172852 16.3231 0.172852H6.26752V2.50967C6.26752 4.05725 7.45696 5.31212 8.92505 5.31212ZM2.65639 17.8265H3.13654H4.33174H12.712V15.4897C12.712 13.9421 11.5225 12.6885 10.0556 12.6885H0V15.0253C0 16.5716 1.18944 17.8265 2.65639 17.8265ZM9.42919 11.5767C9.33592 11.5767 9.24726 11.5829 9.1609 11.5928H0V9.21148C0 7.66513 1.18944 6.41026 2.65639 6.41026H10.1258C10.1323 6.41026 10.1379 6.40994 10.1433 6.40963C10.1485 6.40932 10.1536 6.40903 10.1592 6.40903H18.9781V8.77549C18.9781 10.3218 17.7887 11.5767 16.3217 11.5767H9.42919Z" fill="#177EFF"/>
</svg>
